<mxfile host="Electron" modified="2024-12-02T06:00:52.343Z" agent="Mozilla/5.0 (Windows NT 10.0; Win64; x64) AppleWebKit/537.36 (KHTML, like Gecko) draw.io/24.1.0 Chrome/120.0.6099.109 Electron/28.1.0 Safari/537.36" etag="eLDanxt_8GoZT-u0Bf5B" version="24.1.0" type="device" pages="4">
  <diagram name="框架" id="FWDaWB9af2_QXrQVKMyS">
    <mxGraphModel dx="1434" dy="836" grid="1" gridSize="10" guides="1" tooltips="1" connect="1" arrows="1" fold="1" page="1" pageScale="1" pageWidth="827" pageHeight="1169" math="0" shadow="0">
      <root>
        <mxCell id="0" />
        <mxCell id="1" parent="0" />
        <mxCell id="IRVav8dgEfqfA3BuJ5qu-6" value="" style="rounded=1;whiteSpace=wrap;html=1;fillColor=none;dashed=1;strokeWidth=2;" parent="1" vertex="1">
          <mxGeometry x="290" y="140" width="290" height="410" as="geometry" />
        </mxCell>
        <mxCell id="IRVav8dgEfqfA3BuJ5qu-3" value="" style="edgeStyle=orthogonalEdgeStyle;rounded=0;orthogonalLoop=1;jettySize=auto;html=1;" parent="1" source="IRVav8dgEfqfA3BuJ5qu-1" target="IRVav8dgEfqfA3BuJ5qu-2" edge="1">
          <mxGeometry relative="1" as="geometry" />
        </mxCell>
        <mxCell id="IRVav8dgEfqfA3BuJ5qu-1" value="&lt;font face=&quot;阿里巴巴普惠体&quot; style=&quot;font-size: 24px;&quot;&gt;创建用户自定义函数&lt;/font&gt;" style="rounded=1;whiteSpace=wrap;html=1;fillColor=none;" parent="1" vertex="1">
          <mxGeometry x="325" y="160" width="220" height="70" as="geometry" />
        </mxCell>
        <mxCell id="IRVav8dgEfqfA3BuJ5qu-5" value="" style="edgeStyle=orthogonalEdgeStyle;rounded=0;orthogonalLoop=1;jettySize=auto;html=1;" parent="1" source="IRVav8dgEfqfA3BuJ5qu-2" target="IRVav8dgEfqfA3BuJ5qu-4" edge="1">
          <mxGeometry relative="1" as="geometry" />
        </mxCell>
        <mxCell id="IRVav8dgEfqfA3BuJ5qu-2" value="&lt;font style=&quot;font-size: 24px;&quot; face=&quot;阿里巴巴普惠体&quot;&gt;生成查询计划&lt;/font&gt;" style="rounded=1;whiteSpace=wrap;html=1;fillColor=none;" parent="1" vertex="1">
          <mxGeometry x="330" y="310" width="210" height="70" as="geometry" />
        </mxCell>
        <mxCell id="IRVav8dgEfqfA3BuJ5qu-4" value="&lt;font face=&quot;阿里巴巴普惠体&quot; style=&quot;font-size: 24px;&quot;&gt;执行用户自定义函数&lt;/font&gt;" style="rounded=1;whiteSpace=wrap;html=1;fillColor=none;" parent="1" vertex="1">
          <mxGeometry x="325" y="460" width="220" height="70" as="geometry" />
        </mxCell>
        <mxCell id="IRVav8dgEfqfA3BuJ5qu-7" value="&lt;font style=&quot;font-size: 20px;&quot; face=&quot;阿里巴巴普惠体&quot;&gt;查询优化器对用户自定义函数的执行逻辑实施优化&lt;/font&gt;" style="text;html=1;align=left;verticalAlign=middle;whiteSpace=wrap;rounded=1;strokeColor=default;" parent="1" vertex="1">
          <mxGeometry x="630" y="310" width="170" height="80" as="geometry" />
        </mxCell>
        <mxCell id="IRVav8dgEfqfA3BuJ5qu-8" value="" style="endArrow=classic;html=1;rounded=0;dashed=1;" parent="1" edge="1">
          <mxGeometry width="50" height="50" relative="1" as="geometry">
            <mxPoint x="630" y="344" as="sourcePoint" />
            <mxPoint x="540" y="344" as="targetPoint" />
          </mxGeometry>
        </mxCell>
        <mxCell id="zMGASiA2dR-EG1uqPGgs-1" value="&lt;font style=&quot;font-size: 18px;&quot; face=&quot;阿里巴巴普惠体&quot;&gt;图 1：系统架构图&lt;/font&gt;" style="text;html=1;align=center;verticalAlign=middle;whiteSpace=wrap;rounded=0;" parent="1" vertex="1">
          <mxGeometry x="390" y="570" width="280" height="30" as="geometry" />
        </mxCell>
      </root>
    </mxGraphModel>
  </diagram>
  <diagram id="1hmQuClrv10Y6ED-QjrR" name="创建语句流程">
    <mxGraphModel dx="1434" dy="836" grid="1" gridSize="10" guides="1" tooltips="1" connect="1" arrows="1" fold="1" page="1" pageScale="1" pageWidth="827" pageHeight="1169" math="0" shadow="0">
      <root>
        <mxCell id="0" />
        <mxCell id="1" parent="0" />
        <mxCell id="XEKBc_Tl8i0DWxU27gBW-1" value="" style="edgeStyle=orthogonalEdgeStyle;rounded=0;orthogonalLoop=1;jettySize=auto;html=1;entryX=0;entryY=0.5;entryDx=0;entryDy=0;" parent="1" source="zEVn2f8ufR4z3LNZw272-1" target="XEKBc_Tl8i0DWxU27gBW-4" edge="1">
          <mxGeometry relative="1" as="geometry">
            <Array as="points" />
          </mxGeometry>
        </mxCell>
        <mxCell id="zEVn2f8ufR4z3LNZw272-1" value="&lt;font style=&quot;font-size: 24px;&quot;&gt;客户端&lt;/font&gt;" style="rounded=1;whiteSpace=wrap;html=1;fillColor=none;fontFamily=阿里巴巴普惠体;" parent="1" vertex="1">
          <mxGeometry x="90" y="490" width="120" height="60" as="geometry" />
        </mxCell>
        <mxCell id="zEVn2f8ufR4z3LNZw272-2" value="" style="rounded=1;whiteSpace=wrap;html=1;fillColor=none;dashed=1;strokeWidth=2;" parent="1" vertex="1">
          <mxGeometry x="290" y="420" width="490" height="200" as="geometry" />
        </mxCell>
        <mxCell id="XEKBc_Tl8i0DWxU27gBW-2" value="&lt;font style=&quot;font-size: 24px;&quot; face=&quot;阿里巴巴普惠体&quot;&gt;服务端&lt;/font&gt;" style="text;html=1;align=center;verticalAlign=middle;whiteSpace=wrap;rounded=0;" parent="1" vertex="1">
          <mxGeometry x="485" y="430" width="100" height="30" as="geometry" />
        </mxCell>
        <mxCell id="ejP369n8UAXsf6oMf0vF-1" value="" style="edgeStyle=orthogonalEdgeStyle;rounded=0;orthogonalLoop=1;jettySize=auto;html=1;" parent="1" source="XEKBc_Tl8i0DWxU27gBW-4" target="XEKBc_Tl8i0DWxU27gBW-5" edge="1">
          <mxGeometry relative="1" as="geometry" />
        </mxCell>
        <mxCell id="XEKBc_Tl8i0DWxU27gBW-4" value="&lt;font style=&quot;font-size: 24px;&quot; face=&quot;阿里巴巴普惠体&quot;&gt;解析器&lt;/font&gt;" style="rounded=1;whiteSpace=wrap;html=1;fontColor=default;fillColor=none;" parent="1" vertex="1">
          <mxGeometry x="320" y="490" width="110" height="60" as="geometry" />
        </mxCell>
        <mxCell id="ejP369n8UAXsf6oMf0vF-2" value="" style="edgeStyle=orthogonalEdgeStyle;rounded=0;orthogonalLoop=1;jettySize=auto;html=1;" parent="1" source="XEKBc_Tl8i0DWxU27gBW-5" target="XEKBc_Tl8i0DWxU27gBW-6" edge="1">
          <mxGeometry relative="1" as="geometry" />
        </mxCell>
        <mxCell id="XEKBc_Tl8i0DWxU27gBW-5" value="&lt;font style=&quot;font-size: 24px;&quot; face=&quot;阿里巴巴普惠体&quot;&gt;分析器&lt;/font&gt;" style="rounded=1;whiteSpace=wrap;html=1;fontColor=default;fillColor=none;" parent="1" vertex="1">
          <mxGeometry x="480" y="490" width="110" height="60" as="geometry" />
        </mxCell>
        <mxCell id="XEKBc_Tl8i0DWxU27gBW-6" value="&lt;font face=&quot;阿里巴巴普惠体&quot;&gt;&lt;span style=&quot;font-size: 24px;&quot;&gt;注册函数&lt;/span&gt;&lt;/font&gt;" style="rounded=1;whiteSpace=wrap;html=1;fontColor=default;fillColor=none;" parent="1" vertex="1">
          <mxGeometry x="640" y="490" width="110" height="60" as="geometry" />
        </mxCell>
        <mxCell id="XEKBc_Tl8i0DWxU27gBW-7" value="&lt;font style=&quot;font-size: 18px;&quot; face=&quot;阿里巴巴普惠体&quot;&gt;图 2：创建用户自定义函数的流程&lt;/font&gt;" style="text;html=1;align=center;verticalAlign=middle;whiteSpace=wrap;rounded=0;" parent="1" vertex="1">
          <mxGeometry x="330" y="630" width="280" height="30" as="geometry" />
        </mxCell>
        <mxCell id="ejP369n8UAXsf6oMf0vF-3" value="逻辑计划" style="text;html=1;align=center;verticalAlign=middle;whiteSpace=wrap;rounded=0;fontFamily=阿里巴巴普惠体;fontSize=14;" parent="1" vertex="1">
          <mxGeometry x="330" y="555" width="80" height="30" as="geometry" />
        </mxCell>
        <mxCell id="ejP369n8UAXsf6oMf0vF-4" value="分析函数的属性并创建函数对象" style="text;html=1;align=left;verticalAlign=middle;whiteSpace=wrap;rounded=0;fontFamily=阿里巴巴普惠体;fontSize=14;" parent="1" vertex="1">
          <mxGeometry x="485" y="562" width="100" height="30" as="geometry" />
        </mxCell>
        <mxCell id="ejP369n8UAXsf6oMf0vF-5" value="在数据库中注册函数" style="text;html=1;align=left;verticalAlign=middle;whiteSpace=wrap;rounded=0;fontFamily=阿里巴巴普惠体;fontSize=14;" parent="1" vertex="1">
          <mxGeometry x="650" y="562" width="100" height="30" as="geometry" />
        </mxCell>
        <mxCell id="rx4CG2hYkoNHJfe_defC-1" value="创建用户自定义函数的语句" style="text;html=1;align=left;verticalAlign=middle;whiteSpace=wrap;rounded=0;fontFamily=阿里巴巴普惠体;fontSize=14;" vertex="1" parent="1">
          <mxGeometry x="105" y="562" width="90" height="30" as="geometry" />
        </mxCell>
      </root>
    </mxGraphModel>
  </diagram>
  <diagram id="E1SRqlwKPhnS9UvEQPAU" name="生成查询计划">
    <mxGraphModel dx="1434" dy="836" grid="1" gridSize="10" guides="1" tooltips="1" connect="1" arrows="1" fold="1" page="1" pageScale="1" pageWidth="827" pageHeight="1169" math="0" shadow="0">
      <root>
        <mxCell id="0" />
        <mxCell id="1" parent="0" />
        <mxCell id="FDkYtLhAaBvkV8s8NVmY-1" value="" style="rounded=1;whiteSpace=wrap;html=1;fillColor=none;dashed=1;strokeWidth=2;" vertex="1" parent="1">
          <mxGeometry x="233" y="190" width="527" height="210" as="geometry" />
        </mxCell>
        <mxCell id="FDkYtLhAaBvkV8s8NVmY-3" value="" style="edgeStyle=orthogonalEdgeStyle;rounded=0;orthogonalLoop=1;jettySize=auto;html=1;" edge="1" parent="1" source="1kZhmyQPUV6-gEZmI075-1" target="1kZhmyQPUV6-gEZmI075-2">
          <mxGeometry relative="1" as="geometry" />
        </mxCell>
        <mxCell id="1kZhmyQPUV6-gEZmI075-1" value="逻辑计划" style="rounded=1;whiteSpace=wrap;html=1;fillColor=none;fontFamily=阿里巴巴普惠体;fontSize=24;" vertex="1" parent="1">
          <mxGeometry x="250" y="270" width="130" height="60" as="geometry" />
        </mxCell>
        <mxCell id="FDkYtLhAaBvkV8s8NVmY-4" value="" style="edgeStyle=orthogonalEdgeStyle;rounded=0;orthogonalLoop=1;jettySize=auto;html=1;" edge="1" parent="1" source="1kZhmyQPUV6-gEZmI075-2" target="1kZhmyQPUV6-gEZmI075-3">
          <mxGeometry relative="1" as="geometry" />
        </mxCell>
        <mxCell id="1kZhmyQPUV6-gEZmI075-2" value="物理计划" style="rounded=1;whiteSpace=wrap;html=1;fillColor=none;fontFamily=阿里巴巴普惠体;fontSize=24;" vertex="1" parent="1">
          <mxGeometry x="440" y="270" width="120" height="60" as="geometry" />
        </mxCell>
        <mxCell id="1kZhmyQPUV6-gEZmI075-3" value="计划分片" style="rounded=1;whiteSpace=wrap;html=1;fillColor=none;fontFamily=阿里巴巴普惠体;fontSize=24;" vertex="1" parent="1">
          <mxGeometry x="620" y="270" width="120" height="60" as="geometry" />
        </mxCell>
        <mxCell id="FDkYtLhAaBvkV8s8NVmY-2" value="&lt;font style=&quot;font-size: 24px;&quot; face=&quot;阿里巴巴普惠体&quot;&gt;新查询优化器&lt;/font&gt;" style="text;html=1;align=center;verticalAlign=middle;whiteSpace=wrap;rounded=0;" vertex="1" parent="1">
          <mxGeometry x="420" y="200" width="170" height="30" as="geometry" />
        </mxCell>
        <mxCell id="FDkYtLhAaBvkV8s8NVmY-6" value="" style="edgeStyle=orthogonalEdgeStyle;rounded=0;orthogonalLoop=1;jettySize=auto;html=1;" edge="1" parent="1" source="FDkYtLhAaBvkV8s8NVmY-5" target="1kZhmyQPUV6-gEZmI075-1">
          <mxGeometry relative="1" as="geometry" />
        </mxCell>
        <mxCell id="FDkYtLhAaBvkV8s8NVmY-5" value="&lt;font face=&quot;阿里巴巴普惠体&quot; style=&quot;font-size: 24px;&quot;&gt;嵌入用户自定义函数的查询语句&lt;/font&gt;" style="rounded=1;whiteSpace=wrap;html=1;fillColor=none;align=left;" vertex="1" parent="1">
          <mxGeometry x="20" y="255" width="160" height="90" as="geometry" />
        </mxCell>
        <mxCell id="FDkYtLhAaBvkV8s8NVmY-7" value="&lt;font face=&quot;阿里巴巴普惠体&quot; style=&quot;font-size: 18px;&quot;&gt;优化用户自定义函数的执行逻辑&lt;/font&gt;" style="text;html=1;align=left;verticalAlign=middle;whiteSpace=wrap;rounded=0;" vertex="1" parent="1">
          <mxGeometry x="350" y="345" width="130" height="30" as="geometry" />
        </mxCell>
        <mxCell id="yFU52wT_2VYngB1F4N1f-1" value="&lt;font style=&quot;font-size: 18px;&quot; face=&quot;阿里巴巴普惠体&quot;&gt;图 3：查询计划的生成过程&lt;/font&gt;" style="text;html=1;align=center;verticalAlign=middle;whiteSpace=wrap;rounded=0;" vertex="1" parent="1">
          <mxGeometry x="280" y="430" width="280" height="30" as="geometry" />
        </mxCell>
      </root>
    </mxGraphModel>
  </diagram>
  <diagram id="-jsYSawa4TbCMI4WBZ7I" name="执行 UDF">
    <mxGraphModel dx="1434" dy="836" grid="1" gridSize="10" guides="1" tooltips="1" connect="1" arrows="1" fold="1" page="1" pageScale="1" pageWidth="827" pageHeight="1169" math="0" shadow="0">
      <root>
        <mxCell id="0" />
        <mxCell id="1" parent="0" />
        <mxCell id="EG0hMDb-wDty06elGQ4A-3" value="" style="rounded=1;whiteSpace=wrap;html=1;fillColor=none;" vertex="1" parent="1">
          <mxGeometry x="150" y="200" width="530" height="210" as="geometry" />
        </mxCell>
        <mxCell id="39cC6ZHHkVux1zXefr3y-2" style="edgeStyle=orthogonalEdgeStyle;rounded=0;orthogonalLoop=1;jettySize=auto;html=1;" edge="1" parent="1" source="EG0hMDb-wDty06elGQ4A-1" target="EG0hMDb-wDty06elGQ4A-2">
          <mxGeometry relative="1" as="geometry" />
        </mxCell>
        <mxCell id="EG0hMDb-wDty06elGQ4A-1" value="&lt;font face=&quot;阿里巴巴普惠体&quot; style=&quot;font-size: 24px;&quot;&gt;初始用户自定义函数的执行环境&lt;/font&gt;" style="rounded=1;whiteSpace=wrap;html=1;fillColor=none;align=left;" vertex="1" parent="1">
          <mxGeometry x="172" y="280" width="180" height="70" as="geometry" />
        </mxCell>
        <mxCell id="EG0hMDb-wDty06elGQ4A-2" value="&lt;font face=&quot;阿里巴巴普惠体&quot; style=&quot;font-size: 24px;&quot;&gt;执行用户自定义函数的计算操作&lt;/font&gt;" style="rounded=1;whiteSpace=wrap;html=1;fillColor=none;align=left;" vertex="1" parent="1">
          <mxGeometry x="476" y="280" width="180" height="70" as="geometry" />
        </mxCell>
        <mxCell id="EG0hMDb-wDty06elGQ4A-4" value="&lt;font style=&quot;font-size: 24px;&quot; face=&quot;阿里巴巴普惠体&quot;&gt;执行引擎&lt;/font&gt;" style="text;html=1;align=center;verticalAlign=middle;whiteSpace=wrap;rounded=0;" vertex="1" parent="1">
          <mxGeometry x="352" y="210" width="124" height="30" as="geometry" />
        </mxCell>
        <mxCell id="39cC6ZHHkVux1zXefr3y-4" value="&lt;font style=&quot;font-size: 18px;&quot; face=&quot;阿里巴巴普惠体&quot;&gt;数据格式转换和收集计算结果&lt;/font&gt;" style="text;html=1;align=left;verticalAlign=middle;whiteSpace=wrap;rounded=0;" vertex="1" parent="1">
          <mxGeometry x="508" y="363" width="130" height="30" as="geometry" />
        </mxCell>
        <mxCell id="39cC6ZHHkVux1zXefr3y-5" value="&lt;font style=&quot;font-size: 18px;&quot; face=&quot;阿里巴巴普惠体&quot;&gt;批量原始数据&lt;/font&gt;" style="text;html=1;align=center;verticalAlign=middle;whiteSpace=wrap;rounded=0;" vertex="1" parent="1">
          <mxGeometry x="358" y="270" width="112" height="30" as="geometry" />
        </mxCell>
        <mxCell id="LdqzotKuPIqBTJ2rKIq2-1" value="&lt;font style=&quot;font-size: 18px;&quot; face=&quot;阿里巴巴普惠体&quot;&gt;图 4：用户自定义函数的执行过程&lt;/font&gt;" style="text;html=1;align=center;verticalAlign=middle;whiteSpace=wrap;rounded=0;" vertex="1" parent="1">
          <mxGeometry x="274" y="430" width="280" height="30" as="geometry" />
        </mxCell>
      </root>
    </mxGraphModel>
  </diagram>
</mxfile>
